<svg width="159" height="152" viewBox="0 0 159 152" fill="none" xmlns="http://www.w3.org/2000/svg">
<ellipse cx="90.3409" cy="148.545" rx="3.61364" ry="3.45455" fill="white" fill-opacity="0.2"/>
<ellipse cx="90.3409" cy="65.6364" rx="3.61364" ry="3.45455" fill="white" fill-opacity="0.2"/>
<ellipse cx="3.61364" cy="148.545" rx="3.61364" ry="3.45455" fill="white" fill-opacity="0.2"/>
<ellipse cx="3.61364" cy="65.6364" rx="3.61364" ry="3.45455" fill="white" fill-opacity="0.2"/>
<ellipse cx="90.3409" cy="107.091" rx="3.61364" ry="3.45455" fill="white" fill-opacity="0.2"/>
<ellipse cx="90.3409" cy="24.1818" rx="3.61364" ry="3.45455" fill="white" fill-opacity="0.2"/>
<ellipse cx="3.61364" cy="107.091" rx="3.61364" ry="3.45455" fill="white" fill-opacity="0.2"/>
<ellipse cx="3.61364" cy="24.1818" rx="3.61364" ry="3.45455" fill="white" fill-opacity="0.2"/>
<ellipse cx="90.3409" cy="86.3636" rx="3.61364" ry="3.45455" fill="white" fill-opacity="0.2"/>
<ellipse cx="90.3409" cy="3.45455" rx="3.61364" ry="3.45455" fill="white" fill-opacity="0.2"/>
<ellipse cx="3.61364" cy="86.3636" rx="3.61364" ry="3.45455" fill="white" fill-opacity="0.2"/>
<ellipse cx="3.61364" cy="3.45455" rx="3.61364" ry="3.45455" fill="white" fill-opacity="0.2"/>
<ellipse cx="90.3409" cy="127.818" rx="3.61364" ry="3.45455" fill="white" fill-opacity="0.2"/>
<ellipse cx="90.3409" cy="44.9091" rx="3.61364" ry="3.45455" fill="white" fill-opacity="0.2"/>
<ellipse cx="3.61364" cy="127.818" rx="3.61364" ry="3.45455" fill="white" fill-opacity="0.2"/>
<ellipse cx="3.61364" cy="44.9091" rx="3.61364" ry="3.45455" fill="white" fill-opacity="0.2"/>
<ellipse cx="112.023" cy="148.545" rx="3.61364" ry="3.45455" fill="white" fill-opacity="0.2"/>
<ellipse cx="112.023" cy="65.6364" rx="3.61364" ry="3.45455" fill="white" fill-opacity="0.2"/>
<ellipse cx="25.2955" cy="148.545" rx="3.61364" ry="3.45455" fill="white" fill-opacity="0.2"/>
<ellipse cx="25.2955" cy="65.6364" rx="3.61364" ry="3.45455" fill="white" fill-opacity="0.2"/>
<ellipse cx="112.023" cy="107.091" rx="3.61364" ry="3.45455" fill="white" fill-opacity="0.2"/>
<ellipse cx="112.023" cy="24.1818" rx="3.61364" ry="3.45455" fill="white" fill-opacity="0.2"/>
<ellipse cx="25.2955" cy="107.091" rx="3.61364" ry="3.45455" fill="white" fill-opacity="0.2"/>
<ellipse cx="25.2955" cy="24.1818" rx="3.61364" ry="3.45455" fill="white" fill-opacity="0.2"/>
<ellipse cx="112.023" cy="86.3636" rx="3.61364" ry="3.45455" fill="white" fill-opacity="0.2"/>
<ellipse cx="112.023" cy="3.45455" rx="3.61364" ry="3.45455" fill="white" fill-opacity="0.2"/>
<ellipse cx="25.2955" cy="86.3636" rx="3.61364" ry="3.45455" fill="white" fill-opacity="0.2"/>
<ellipse cx="25.2955" cy="3.45455" rx="3.61364" ry="3.45455" fill="white" fill-opacity="0.2"/>
<ellipse cx="112.023" cy="127.818" rx="3.61364" ry="3.45455" fill="white" fill-opacity="0.2"/>
<ellipse cx="112.023" cy="44.9091" rx="3.61364" ry="3.45455" fill="white" fill-opacity="0.2"/>
<ellipse cx="25.2955" cy="127.818" rx="3.61364" ry="3.45455" fill="white" fill-opacity="0.2"/>
<ellipse cx="25.2955" cy="44.9091" rx="3.61364" ry="3.45455" fill="white" fill-opacity="0.2"/>
<ellipse cx="133.705" cy="148.545" rx="3.61364" ry="3.45455" fill="white" fill-opacity="0.2"/>
<ellipse cx="133.705" cy="65.6364" rx="3.61364" ry="3.45455" fill="white" fill-opacity="0.2"/>
<ellipse cx="46.9773" cy="148.545" rx="3.61364" ry="3.45455" fill="white" fill-opacity="0.2"/>
<ellipse cx="46.9773" cy="65.6364" rx="3.61364" ry="3.45455" fill="white" fill-opacity="0.2"/>
<ellipse cx="133.705" cy="107.091" rx="3.61364" ry="3.45455" fill="white" fill-opacity="0.2"/>
<ellipse cx="133.705" cy="24.1818" rx="3.61364" ry="3.45455" fill="white" fill-opacity="0.2"/>
<ellipse cx="46.9773" cy="107.091" rx="3.61364" ry="3.45455" fill="white" fill-opacity="0.2"/>
<ellipse cx="46.9773" cy="24.1818" rx="3.61364" ry="3.45455" fill="white" fill-opacity="0.2"/>
<ellipse cx="133.705" cy="86.3636" rx="3.61364" ry="3.45455" fill="white" fill-opacity="0.2"/>
<ellipse cx="133.705" cy="3.45455" rx="3.61364" ry="3.45455" fill="white" fill-opacity="0.2"/>
<ellipse cx="46.9773" cy="86.3636" rx="3.61364" ry="3.45455" fill="white" fill-opacity="0.2"/>
<ellipse cx="46.9773" cy="3.45455" rx="3.61364" ry="3.45455" fill="white" fill-opacity="0.2"/>
<ellipse cx="133.705" cy="127.818" rx="3.61364" ry="3.45455" fill="white" fill-opacity="0.2"/>
<ellipse cx="133.705" cy="44.9091" rx="3.61364" ry="3.45455" fill="white" fill-opacity="0.2"/>
<ellipse cx="46.9773" cy="127.818" rx="3.61364" ry="3.45455" fill="white" fill-opacity="0.2"/>
<ellipse cx="46.9773" cy="44.9091" rx="3.61364" ry="3.45455" fill="white" fill-opacity="0.2"/>
<ellipse cx="155.386" cy="148.545" rx="3.61364" ry="3.45455" fill="white" fill-opacity="0.2"/>
<ellipse cx="155.386" cy="65.6364" rx="3.61364" ry="3.45455" fill="white" fill-opacity="0.2"/>
<ellipse cx="68.659" cy="148.545" rx="3.61364" ry="3.45455" fill="white" fill-opacity="0.2"/>
<ellipse cx="68.659" cy="65.6364" rx="3.61364" ry="3.45455" fill="white" fill-opacity="0.2"/>
<ellipse cx="155.386" cy="107.091" rx="3.61364" ry="3.45455" fill="white" fill-opacity="0.2"/>
<ellipse cx="155.386" cy="24.1818" rx="3.61364" ry="3.45455" fill="white" fill-opacity="0.2"/>
<ellipse cx="68.659" cy="107.091" rx="3.61364" ry="3.45455" fill="white" fill-opacity="0.2"/>
<ellipse cx="68.659" cy="24.1818" rx="3.61364" ry="3.45455" fill="white" fill-opacity="0.2"/>
<ellipse cx="155.386" cy="86.3636" rx="3.61364" ry="3.45455" fill="white" fill-opacity="0.2"/>
<ellipse cx="155.386" cy="3.45455" rx="3.61364" ry="3.45455" fill="white" fill-opacity="0.2"/>
<ellipse cx="68.659" cy="86.3636" rx="3.61364" ry="3.45455" fill="white" fill-opacity="0.2"/>
<ellipse cx="68.659" cy="3.45455" rx="3.61364" ry="3.45455" fill="white" fill-opacity="0.2"/>
<ellipse cx="155.386" cy="127.818" rx="3.61364" ry="3.45455" fill="white" fill-opacity="0.2"/>
<ellipse cx="155.386" cy="44.9091" rx="3.61364" ry="3.45455" fill="white" fill-opacity="0.2"/>
<ellipse cx="68.659" cy="127.818" rx="3.61364" ry="3.45455" fill="white" fill-opacity="0.2"/>
<ellipse cx="68.659" cy="44.9091" rx="3.61364" ry="3.45455" fill="white" fill-opacity="0.2"/>
</svg>
