<svg width="290" height="311" viewBox="0 0 290 311" fill="none" xmlns="http://www.w3.org/2000/svg">
<g clip-path="url(#clip0_254_5)">
<rect width="290" height="311" fill="#313131"/>
<path d="M-0.875 206H33.0625C40.0208 206 46 207.042 51 209.125C56.0417 211.208 59.9167 214.292 62.625 218.375C65.3333 222.458 66.6875 227.479 66.6875 233.438C66.6875 238.312 65.8542 242.5 64.1875 246C62.5625 249.458 60.25 252.354 57.25 254.688C54.2917 256.979 50.8125 258.812 46.8125 260.188L40.875 263.312H11.375L11.25 248.688H33.1875C36.4792 248.688 39.2083 248.104 41.375 246.938C43.5417 245.771 45.1667 244.146 46.25 242.062C47.375 239.979 47.9375 237.562 47.9375 234.812C47.9375 231.896 47.3958 229.375 46.3125 227.25C45.2292 225.125 43.5833 223.5 41.375 222.375C39.1667 221.25 36.3958 220.688 33.0625 220.688H17.875V297H-0.875V206ZM50 297L29.25 256.438L49.0625 256.312L70.0625 296.125V297H50ZM111.125 298.25C105.875 298.25 101.167 297.417 97 295.75C92.8333 294.042 89.2917 291.688 86.375 288.688C83.5 285.688 81.2917 282.208 79.75 278.25C78.2083 274.25 77.4375 270 77.4375 265.5V263C77.4375 257.875 78.1667 253.188 79.625 248.938C81.0833 244.688 83.1667 241 85.875 237.875C88.625 234.75 91.9583 232.354 95.875 230.688C99.7917 228.979 104.208 228.125 109.125 228.125C113.917 228.125 118.167 228.917 121.875 230.5C125.583 232.083 128.688 234.333 131.188 237.25C133.729 240.167 135.646 243.667 136.938 247.75C138.229 251.792 138.875 256.292 138.875 261.25V268.75H85.125V256.75H121.188V255.375C121.188 252.875 120.729 250.646 119.812 248.688C118.938 246.688 117.604 245.104 115.812 243.938C114.021 242.771 111.729 242.188 108.938 242.188C106.562 242.188 104.521 242.708 102.812 243.75C101.104 244.792 99.7083 246.25 98.625 248.125C97.5833 250 96.7917 252.208 96.25 254.75C95.75 257.25 95.5 260 95.5 263V265.5C95.5 268.208 95.875 270.708 96.625 273C97.4167 275.292 98.5208 277.271 99.9375 278.938C101.396 280.604 103.146 281.896 105.188 282.812C107.271 283.729 109.625 284.188 112.25 284.188C115.5 284.188 118.521 283.562 121.312 282.312C124.146 281.021 126.583 279.083 128.625 276.5L137.375 286C135.958 288.042 134.021 290 131.562 291.875C129.146 293.75 126.229 295.292 122.812 296.5C119.396 297.667 115.5 298.25 111.125 298.25ZM171.25 283.875L186.25 229.375H205.062L182.25 297H170.875L171.25 283.875ZM160.938 229.375L176 283.938L176.312 297H164.875L142.062 229.375H160.938ZM264.5 206H283.188V266.125C283.188 273.125 281.688 279.021 278.688 283.812C275.729 288.604 271.625 292.208 266.375 294.625C261.167 297.042 255.167 298.25 248.375 298.25C241.583 298.25 235.542 297.042 230.25 294.625C225 292.208 220.875 288.604 217.875 283.812C214.917 279.021 213.438 273.125 213.438 266.125V206H232.188V266.125C232.188 270.208 232.833 273.542 234.125 276.125C235.417 278.708 237.271 280.604 239.688 281.812C242.146 283.021 245.042 283.625 248.375 283.625C251.792 283.625 254.688 283.021 257.062 281.812C259.479 280.604 261.312 278.708 262.562 276.125C263.854 273.542 264.5 270.208 264.5 266.125V206Z" fill="url(#paint0_linear_254_5)"/>
</g>
<defs>
<linearGradient id="paint0_linear_254_5" x1="-9" y1="233.944" x2="221.123" y2="234.801" gradientUnits="userSpaceOnUse">
<stop offset="0.0991791" stop-color="#AD00FF"/>
<stop offset="1" stop-color="#FA00FF"/>
</linearGradient>
<clipPath id="clip0_254_5">
<rect width="290" height="311" fill="white"/>
</clipPath>
</defs>
</svg>
