<svg xmlns="http://www.w3.org/2000/svg" xmlns:xlink="http://www.w3.org/1999/xlink" viewBox="0,0,256,256" width="96px" height="96px" fill-rule="nonzero"><g fill="#ffffff" fill-rule="nonzero" stroke="none" stroke-width="1" stroke-linecap="butt" stroke-linejoin="miter" stroke-miterlimit="10" stroke-dasharray="" stroke-dashoffset="0" font-family="none" font-weight="none" font-size="none" text-anchor="none" style="mix-blend-mode: normal"><g transform="scale(10.66667,10.66667)"><path d="M6,2c-0.52222,0 -1.05461,0.19133 -1.43164,0.56836c-0.37703,0.37703 -0.56836,0.90942 -0.56836,1.43164v16c0,0.52222 0.19133,1.05461 0.56836,1.43164c0.37703,0.37703 0.90942,0.56836 1.43164,0.56836h12c0.52222,0 1.05461,-0.19133 1.43164,-0.56836c0.37703,-0.37703 0.56836,-0.90942 0.56836,-1.43164v-12.01367l-5.98633,-5.98633zM6,4h7v5h5v11h-12zM8,12v2h8v-2zM8,16v2h8v-2z"></path></g></g></svg>