<svg width="33" height="35" viewBox="0 0 33 35" fill="none" xmlns="http://www.w3.org/2000/svg">
<rect width="33" height="35" fill="#F5F5F5"/>
<mask id="mask0_0_1" style="mask-type:luminance" maskUnits="userSpaceOnUse" x="0" y="0" width="33" height="35">
<path d="M33 0H0V35H33V0Z" fill="white"/>
</mask>
<g mask="url(#mask0_0_1)">
<path d="M33 0H0V35H33V0Z" fill="#313131"/>
<path d="M0 23H3.94257C4.75092 23 5.44554 23.1242 6.02639 23.3726C6.61209 23.621 7.06226 23.9887 7.37689 24.4756C7.69151 24.9625 7.84883 25.5612 7.84883 26.2717C7.84883 26.8529 7.75203 27.3523 7.5584 27.7696C7.36962 28.182 7.10098 28.5273 6.75246 28.8056C6.40879 29.0788 6.00461 29.2974 5.53992 29.4614L4.85016 29.834H1.4231L1.40858 28.0902H3.95709C4.33949 28.0902 4.65653 28.0205 4.90824 27.8815C5.15995 27.7423 5.34873 27.5486 5.47458 27.3001C5.60527 27.0517 5.67062 26.7635 5.67062 26.4356C5.67062 26.0879 5.60769 25.7873 5.48184 25.5339C5.35599 25.2805 5.16478 25.0867 4.90824 24.9526C4.6517 24.8184 4.3298 24.7514 3.94257 24.7514H2.17821V33.8509H0V23ZM5.91022 33.8509L3.49966 29.0143L5.80131 28.9993L8.24091 33.7466V33.8509H5.91022ZM13.0112 34C12.4013 34 11.8544 33.9007 11.3703 33.7019C10.8862 33.4982 10.4748 33.2175 10.136 32.8598C9.80196 32.5021 9.54542 32.0871 9.36632 31.6152C9.18722 31.1382 9.09767 30.6314 9.09767 30.0949V29.7967C9.09767 29.1856 9.18239 28.6268 9.3518 28.12C9.52121 27.6132 9.76324 27.1734 10.0779 26.8008C10.3973 26.4282 10.7846 26.1425 11.2396 25.9438C11.6946 25.74 12.2076 25.6382 12.7789 25.6382C13.3355 25.6382 13.8293 25.7327 14.26 25.9214C14.6908 26.1102 15.0515 26.3785 15.3419 26.7263C15.6371 27.0741 15.8598 27.4915 16.0099 27.9783C16.1599 28.4603 16.235 28.9969 16.235 29.5881V30.4824H9.99074V29.0515H14.1802V28.8875C14.1802 28.5894 14.1269 28.3236 14.0204 28.0902C13.9188 27.8517 13.7639 27.6628 13.5557 27.5238C13.3476 27.3846 13.0814 27.3151 12.7571 27.3151C12.4811 27.3151 12.244 27.3771 12.0455 27.5014C11.847 27.6256 11.6849 27.7995 11.5591 28.023C11.438 28.2466 11.3461 28.5099 11.2831 28.813C11.2251 29.1111 11.196 29.439 11.196 29.7967V30.0949C11.196 30.4178 11.2396 30.7159 11.3267 30.9892C11.4187 31.2625 11.547 31.4984 11.7115 31.6972C11.881 31.8959 12.0843 32.0499 12.3215 32.1592C12.5635 32.2685 12.8369 32.3232 13.1419 32.3232C13.5194 32.3232 13.8704 32.2486 14.1946 32.0995C14.5239 31.9456 14.807 31.7145 15.0442 31.4065L16.0607 32.5393C15.8961 32.7828 15.6711 33.0163 15.3854 33.2398C15.1047 33.4634 14.7659 33.6473 14.3689 33.7913C13.9721 33.9305 13.5194 34 13.0112 34ZM19.996 32.2859L21.7386 25.7873H23.924L21.2739 33.8509H19.9524L19.996 32.2859ZM18.798 25.7873L20.5478 32.2934L20.5841 33.8509H19.2554L16.6052 25.7873H18.798ZM30.829 23H33V30.1694C33 31.0041 32.8257 31.7071 32.4772 32.2784C32.1335 32.8498 31.6567 33.2795 31.0468 33.5678C30.4418 33.856 29.7448 34 28.9557 34C28.1667 34 27.4649 33.856 26.8501 33.5678C26.2402 33.2795 25.761 32.8498 25.4125 32.2784C25.0689 31.7071 24.897 31.0041 24.897 30.1694V23H27.0753V30.1694C27.0753 30.6562 27.1502 31.0538 27.3003 31.3618C27.4504 31.6698 27.6658 31.8959 27.9465 32.0399C28.2321 32.1841 28.5685 32.2561 28.9557 32.2561C29.3527 32.2561 29.6891 32.1841 29.9649 32.0399C30.2457 31.8959 30.4586 31.6698 30.6039 31.3618C30.7539 31.0538 30.829 30.6562 30.829 30.1694V23Z" fill="url(#paint0_linear_0_1)"/>
</g>
<defs>
<linearGradient id="paint0_linear_0_1" x1="-0.943893" y1="26.3321" x2="25.7898" y2="26.4291" gradientUnits="userSpaceOnUse">
<stop offset="0.0991791" stop-color="#AD00FF"/>
<stop offset="1" stop-color="#FA00FF"/>
</linearGradient>
</defs>
</svg>
