<svg width="50" height="44" viewBox="0 0 50 44" fill="none" xmlns="http://www.w3.org/2000/svg">
<g clip-path="url(#clip0_255_24)">
<path d="M50 0H0V44H50V0Z" fill="#F5F5F5"/>
<mask id="mask0_255_24" style="mask-type:luminance" maskUnits="userSpaceOnUse" x="0" y="0" width="50" height="44">
<path d="M50 0H0V44H50V0Z" fill="white"/>
</mask>
<g mask="url(#mask0_255_24)">
<path d="M50 0H0V44H50V0Z" fill="#313131"/>
<path d="M-0.122314 29.1447H4.61756C5.58939 29.1447 6.42447 29.2921 7.1228 29.5868C7.82694 29.8815 8.36815 30.3178 8.7464 30.8955C9.12465 31.4731 9.31379 32.1835 9.31379 33.0266C9.31379 33.7161 9.19741 34.3086 8.96463 34.8038C8.73767 35.2931 8.4147 35.7028 7.9957 36.033C7.58253 36.3571 7.09661 36.6164 6.53795 36.8111L5.70869 37.2531H1.58858L1.57112 35.1841H4.63502C5.09475 35.1841 5.47591 35.1015 5.77852 34.9365C6.08114 34.7714 6.30809 34.5415 6.45939 34.2467C6.61651 33.952 6.69507 33.61 6.69507 33.2209C6.69507 32.8084 6.61942 32.4517 6.46812 32.1511C6.31682 31.8504 6.08695 31.6205 5.77852 31.4614C5.4701 31.3022 5.0831 31.2227 4.61756 31.2227H2.4964V42.0193H-0.122314V29.1447ZM6.98313 42.0193L4.08509 36.2806L6.8522 36.2628L9.78516 41.8955V42.0193H6.98313ZM15.5201 42.1961C14.7869 42.1961 14.1294 42.0782 13.5474 41.8424C12.9654 41.6008 12.4708 41.2677 12.0634 40.8433C11.6619 40.4188 11.3535 39.9265 11.1382 39.3665C10.9228 38.8006 10.8152 38.1993 10.8152 37.5627V37.209C10.8152 36.4839 10.917 35.8208 11.1207 35.2195C11.3244 34.6182 11.6154 34.0964 11.9936 33.6543C12.3777 33.2122 12.8432 32.8732 13.3903 32.6375C13.9373 32.3957 14.5541 32.2749 15.2408 32.2749C15.9101 32.2749 16.5037 32.3869 17.0215 32.6109C17.5394 32.8349 17.9731 33.1532 18.3222 33.5659C18.6771 33.9786 18.9449 34.4737 19.1253 35.0514C19.3056 35.6233 19.3958 36.2599 19.3958 36.9614V38.0225H11.8889V36.3247H16.9256V36.1302C16.9256 35.7765 16.8615 35.4611 16.7334 35.1841C16.6113 34.9012 16.425 34.6771 16.1748 34.5121C15.9246 34.347 15.6045 34.2645 15.2147 34.2645C14.8829 34.2645 14.5978 34.3381 14.3591 34.4855C14.1206 34.6329 13.9256 34.8392 13.7743 35.1045C13.6288 35.3697 13.5183 35.6821 13.4426 36.0418C13.3728 36.3955 13.3379 36.7845 13.3379 37.209V37.5627C13.3379 37.9458 13.3903 38.2995 13.495 38.6238C13.6056 38.948 13.7598 39.228 13.9576 39.4639C14.1613 39.6996 14.4058 39.8824 14.691 40.0119C14.9819 40.1417 15.3106 40.2066 15.6773 40.2066C16.1312 40.2066 16.5531 40.1181 16.9429 39.9412C17.3387 39.7586 17.6791 39.4844 17.9643 39.1189L19.1863 40.463C18.9884 40.7519 18.7179 41.0289 18.3745 41.2942C18.037 41.5594 17.6296 41.7776 17.1524 41.9485C16.6753 42.1136 16.1312 42.1961 15.5201 42.1961ZM23.9175 40.1623L26.0125 32.4517H28.6398L25.4538 42.0193H23.8651L23.9175 40.1623ZM22.4773 32.4517L24.5809 40.1713L24.6245 42.0193H23.0271L19.841 32.4517H22.4773ZM36.9412 29.1447H39.5513V37.6511C39.5513 38.6414 39.3418 39.4756 38.9228 40.1534C38.5095 40.8314 37.9363 41.3413 37.2031 41.6832C36.4757 42.0252 35.6377 42.1961 34.6891 42.1961C33.7405 42.1961 32.8968 42.0252 32.1577 41.6832C31.4245 41.3413 30.8484 40.8314 30.4294 40.1534C30.0162 39.4756 29.8097 38.6414 29.8097 37.6511V29.1447H32.4284V37.6511C32.4284 38.2287 32.5185 38.7004 32.6989 39.0659C32.8794 39.4313 33.1383 39.6996 33.4759 39.8705C33.8192 40.0415 34.2236 40.127 34.6891 40.127C35.1664 40.127 35.5708 40.0415 35.9024 39.8705C36.24 39.6996 36.496 39.4313 36.6706 39.0659C36.851 38.7004 36.9412 38.2287 36.9412 37.6511V29.1447ZM46.0979 40.7901C46.0979 40.4129 46.226 40.0975 46.482 39.844C46.744 39.5905 47.0903 39.4639 47.5208 39.4639C47.9514 39.4639 48.2949 39.5905 48.5509 39.844C48.8127 40.0975 48.9437 40.4129 48.9437 40.7901C48.9437 41.1674 48.8127 41.4828 48.5509 41.7363C48.2949 41.9898 47.9514 42.1166 47.5208 42.1166C47.0903 42.1166 46.744 41.9898 46.482 41.7363C46.226 41.4828 46.0979 41.1674 46.0979 40.7901ZM46.0979 33.4951C46.0979 33.1178 46.226 32.8025 46.482 32.5489C46.744 32.2955 47.0903 32.1688 47.5208 32.1688C47.9514 32.1688 48.2949 32.2955 48.5509 32.5489C48.8127 32.8025 48.9437 33.1178 48.9437 33.4951C48.9437 33.8725 48.8127 34.1878 48.5509 34.4413C48.2949 34.6947 47.9514 34.8215 47.5208 34.8215C47.0903 34.8215 46.744 34.6947 46.482 34.4413C46.226 34.1878 46.0979 33.8725 46.0979 33.4951Z" fill="url(#paint0_linear_255_24)"/>
</g>
</g>
<defs>
<linearGradient id="paint0_linear_255_24" x1="-1.25709" y1="33.0981" x2="44.2569" y2="33.335" gradientUnits="userSpaceOnUse">
<stop offset="0.0991791" stop-color="#AD00FF"/>
<stop offset="1" stop-color="#FA00FF"/>
</linearGradient>
<clipPath id="clip0_255_24">
<rect width="50" height="44" fill="white"/>
</clipPath>
</defs>
</svg>
