<svg width="88" height="63" viewBox="0 0 88 63" fill="none" xmlns="http://www.w3.org/2000/svg">
<circle cx="50" cy="61" r="2" fill="white" fill-opacity="0.2"/>
<circle cx="50" cy="13" r="2" fill="white" fill-opacity="0.2"/>
<circle cx="2" cy="61" r="2" fill="white" fill-opacity="0.2"/>
<circle cx="2" cy="13" r="2" fill="white" fill-opacity="0.2"/>
<circle cx="50" cy="37" r="2" fill="white" fill-opacity="0.2"/>
<circle cx="2" cy="37" r="2" fill="white" fill-opacity="0.2"/>
<circle cx="50" cy="25" r="2" fill="white" fill-opacity="0.2"/>
<circle cx="2" cy="25" r="2" fill="white" fill-opacity="0.2"/>
<circle cx="50" cy="49" r="2" fill="white" fill-opacity="0.2"/>
<circle cx="50" cy="1" r="2" fill="white" fill-opacity="0.2"/>
<circle cx="2" cy="49" r="2" fill="white" fill-opacity="0.2"/>
<circle cx="2" cy="1" r="2" fill="white" fill-opacity="0.2"/>
<circle cx="62" cy="61" r="2" fill="white" fill-opacity="0.2"/>
<circle cx="62" cy="13" r="2" fill="white" fill-opacity="0.2"/>
<circle cx="14" cy="61" r="2" fill="white" fill-opacity="0.2"/>
<circle cx="14" cy="13" r="2" fill="white" fill-opacity="0.2"/>
<circle cx="62" cy="37" r="2" fill="white" fill-opacity="0.2"/>
<circle cx="14" cy="37" r="2" fill="white" fill-opacity="0.2"/>
<circle cx="62" cy="25" r="2" fill="white" fill-opacity="0.2"/>
<circle cx="14" cy="25" r="2" fill="white" fill-opacity="0.2"/>
<circle cx="62" cy="49" r="2" fill="white" fill-opacity="0.2"/>
<circle cx="62" cy="1" r="2" fill="white" fill-opacity="0.2"/>
<circle cx="14" cy="49" r="2" fill="white" fill-opacity="0.2"/>
<circle cx="14" cy="1" r="2" fill="white" fill-opacity="0.2"/>
<circle cx="74" cy="61" r="2" fill="white" fill-opacity="0.2"/>
<circle cx="74" cy="13" r="2" fill="white" fill-opacity="0.2"/>
<circle cx="26" cy="61" r="2" fill="white" fill-opacity="0.2"/>
<circle cx="26" cy="13" r="2" fill="white" fill-opacity="0.2"/>
<circle cx="74" cy="37" r="2" fill="white" fill-opacity="0.2"/>
<circle cx="26" cy="37" r="2" fill="white" fill-opacity="0.2"/>
<circle cx="74" cy="25" r="2" fill="white" fill-opacity="0.2"/>
<circle cx="26" cy="25" r="2" fill="white" fill-opacity="0.2"/>
<circle cx="74" cy="49" r="2" fill="white" fill-opacity="0.2"/>
<circle cx="74" cy="1" r="2" fill="white" fill-opacity="0.2"/>
<circle cx="26" cy="49" r="2" fill="white" fill-opacity="0.2"/>
<circle cx="26" cy="1" r="2" fill="white" fill-opacity="0.2"/>
<circle cx="86" cy="61" r="2" fill="white" fill-opacity="0.2"/>
<circle cx="86" cy="13" r="2" fill="white" fill-opacity="0.2"/>
<circle cx="38" cy="61" r="2" fill="white" fill-opacity="0.2"/>
<circle cx="38" cy="13" r="2" fill="white" fill-opacity="0.2"/>
<circle cx="86" cy="37" r="2" fill="white" fill-opacity="0.2"/>
<circle cx="38" cy="37" r="2" fill="white" fill-opacity="0.2"/>
<circle cx="86" cy="25" r="2" fill="white" fill-opacity="0.2"/>
<circle cx="38" cy="25" r="2" fill="white" fill-opacity="0.2"/>
<circle cx="86" cy="49" r="2" fill="white" fill-opacity="0.2"/>
<circle cx="86" cy="1" r="2" fill="white" fill-opacity="0.2"/>
<circle cx="38" cy="49" r="2" fill="white" fill-opacity="0.2"/>
<circle cx="38" cy="1" r="2" fill="white" fill-opacity="0.2"/>
</svg>
