<svg width="199" height="185" viewBox="0 0 199 185" fill="none" xmlns="http://www.w3.org/2000/svg">
<ellipse cx="113.068" cy="180.795" rx="4.52273" ry="4.20455" fill="white" fill-opacity="0.31"/>
<ellipse cx="113.068" cy="79.8864" rx="4.52273" ry="4.20455" fill="white" fill-opacity="0.31"/>
<ellipse cx="4.52273" cy="180.795" rx="4.52273" ry="4.20455" fill="white" fill-opacity="0.31"/>
<ellipse cx="4.52273" cy="79.8864" rx="4.52273" ry="4.20455" fill="white" fill-opacity="0.31"/>
<ellipse cx="113.068" cy="130.341" rx="4.52273" ry="4.20455" fill="white" fill-opacity="0.31"/>
<ellipse cx="113.068" cy="29.4318" rx="4.52273" ry="4.20455" fill="white" fill-opacity="0.31"/>
<ellipse cx="4.52273" cy="130.341" rx="4.52273" ry="4.20455" fill="white" fill-opacity="0.31"/>
<ellipse cx="4.52273" cy="29.4318" rx="4.52273" ry="4.20455" fill="white" fill-opacity="0.31"/>
<ellipse cx="113.068" cy="105.114" rx="4.52273" ry="4.20455" fill="white" fill-opacity="0.31"/>
<ellipse cx="113.068" cy="4.20455" rx="4.52273" ry="4.20455" fill="white" fill-opacity="0.31"/>
<ellipse cx="4.52273" cy="105.114" rx="4.52273" ry="4.20455" fill="white" fill-opacity="0.31"/>
<ellipse cx="4.52273" cy="4.20455" rx="4.52273" ry="4.20455" fill="white" fill-opacity="0.31"/>
<ellipse cx="113.068" cy="155.568" rx="4.52273" ry="4.20455" fill="white" fill-opacity="0.31"/>
<ellipse cx="113.068" cy="54.6591" rx="4.52273" ry="4.20455" fill="white" fill-opacity="0.31"/>
<ellipse cx="4.52273" cy="155.568" rx="4.52273" ry="4.20455" fill="white" fill-opacity="0.31"/>
<ellipse cx="4.52273" cy="54.6591" rx="4.52273" ry="4.20455" fill="white" fill-opacity="0.31"/>
<ellipse cx="140.204" cy="180.795" rx="4.52273" ry="4.20455" fill="white" fill-opacity="0.31"/>
<ellipse cx="140.204" cy="79.8864" rx="4.52273" ry="4.20455" fill="white" fill-opacity="0.31"/>
<ellipse cx="31.659" cy="180.795" rx="4.52273" ry="4.20455" fill="white" fill-opacity="0.31"/>
<ellipse cx="31.659" cy="79.8864" rx="4.52273" ry="4.20455" fill="white" fill-opacity="0.31"/>
<ellipse cx="140.204" cy="130.341" rx="4.52273" ry="4.20455" fill="white" fill-opacity="0.31"/>
<ellipse cx="140.204" cy="29.4318" rx="4.52273" ry="4.20455" fill="white" fill-opacity="0.31"/>
<ellipse cx="31.659" cy="130.341" rx="4.52273" ry="4.20455" fill="white" fill-opacity="0.31"/>
<ellipse cx="31.659" cy="29.4318" rx="4.52273" ry="4.20455" fill="white" fill-opacity="0.31"/>
<ellipse cx="140.204" cy="105.114" rx="4.52273" ry="4.20455" fill="white" fill-opacity="0.31"/>
<ellipse cx="140.204" cy="4.20455" rx="4.52273" ry="4.20455" fill="white" fill-opacity="0.31"/>
<ellipse cx="31.659" cy="105.114" rx="4.52273" ry="4.20455" fill="white" fill-opacity="0.31"/>
<ellipse cx="31.659" cy="4.20455" rx="4.52273" ry="4.20455" fill="white" fill-opacity="0.31"/>
<ellipse cx="140.204" cy="155.568" rx="4.52273" ry="4.20455" fill="white" fill-opacity="0.31"/>
<ellipse cx="140.204" cy="54.6591" rx="4.52273" ry="4.20455" fill="white" fill-opacity="0.31"/>
<ellipse cx="31.659" cy="155.568" rx="4.52273" ry="4.20455" fill="white" fill-opacity="0.31"/>
<ellipse cx="31.659" cy="54.6591" rx="4.52273" ry="4.20455" fill="white" fill-opacity="0.31"/>
<ellipse cx="167.341" cy="180.795" rx="4.52273" ry="4.20455" fill="white" fill-opacity="0.31"/>
<ellipse cx="167.341" cy="79.8864" rx="4.52273" ry="4.20455" fill="white" fill-opacity="0.31"/>
<ellipse cx="58.7957" cy="180.795" rx="4.52273" ry="4.20455" fill="white" fill-opacity="0.31"/>
<ellipse cx="58.7957" cy="79.8864" rx="4.52273" ry="4.20455" fill="white" fill-opacity="0.31"/>
<ellipse cx="167.341" cy="130.341" rx="4.52273" ry="4.20455" fill="white" fill-opacity="0.31"/>
<ellipse cx="167.341" cy="29.4318" rx="4.52273" ry="4.20455" fill="white" fill-opacity="0.31"/>
<ellipse cx="58.7957" cy="130.341" rx="4.52273" ry="4.20455" fill="white" fill-opacity="0.31"/>
<ellipse cx="58.7957" cy="29.4318" rx="4.52273" ry="4.20455" fill="white" fill-opacity="0.31"/>
<ellipse cx="167.341" cy="105.114" rx="4.52273" ry="4.20455" fill="white" fill-opacity="0.31"/>
<ellipse cx="167.341" cy="4.20455" rx="4.52273" ry="4.20455" fill="white" fill-opacity="0.31"/>
<ellipse cx="58.7957" cy="105.114" rx="4.52273" ry="4.20455" fill="white" fill-opacity="0.31"/>
<ellipse cx="58.7957" cy="4.20455" rx="4.52273" ry="4.20455" fill="white" fill-opacity="0.31"/>
<ellipse cx="167.341" cy="155.568" rx="4.52273" ry="4.20455" fill="white" fill-opacity="0.31"/>
<ellipse cx="167.341" cy="54.6591" rx="4.52273" ry="4.20455" fill="white" fill-opacity="0.31"/>
<ellipse cx="58.7957" cy="155.568" rx="4.52273" ry="4.20455" fill="white" fill-opacity="0.31"/>
<ellipse cx="58.7957" cy="54.6591" rx="4.52273" ry="4.20455" fill="white" fill-opacity="0.31"/>
<ellipse cx="194.477" cy="180.795" rx="4.52273" ry="4.20455" fill="white" fill-opacity="0.31"/>
<ellipse cx="194.477" cy="79.8864" rx="4.52273" ry="4.20455" fill="white" fill-opacity="0.31"/>
<ellipse cx="85.9319" cy="180.795" rx="4.52273" ry="4.20455" fill="white" fill-opacity="0.31"/>
<ellipse cx="85.9319" cy="79.8864" rx="4.52273" ry="4.20455" fill="white" fill-opacity="0.31"/>
<ellipse cx="194.477" cy="130.341" rx="4.52273" ry="4.20455" fill="white" fill-opacity="0.31"/>
<ellipse cx="194.477" cy="29.4318" rx="4.52273" ry="4.20455" fill="white" fill-opacity="0.31"/>
<ellipse cx="85.9319" cy="130.341" rx="4.52273" ry="4.20455" fill="white" fill-opacity="0.31"/>
<ellipse cx="85.9319" cy="29.4318" rx="4.52273" ry="4.20455" fill="white" fill-opacity="0.31"/>
<ellipse cx="194.477" cy="105.114" rx="4.52273" ry="4.20455" fill="white" fill-opacity="0.31"/>
<ellipse cx="194.477" cy="4.20455" rx="4.52273" ry="4.20455" fill="white" fill-opacity="0.31"/>
<ellipse cx="85.9319" cy="105.114" rx="4.52273" ry="4.20455" fill="white" fill-opacity="0.31"/>
<ellipse cx="85.9319" cy="4.20455" rx="4.52273" ry="4.20455" fill="white" fill-opacity="0.31"/>
<ellipse cx="194.477" cy="155.568" rx="4.52273" ry="4.20455" fill="white" fill-opacity="0.31"/>
<ellipse cx="194.477" cy="54.6591" rx="4.52273" ry="4.20455" fill="white" fill-opacity="0.31"/>
<ellipse cx="85.9319" cy="155.568" rx="4.52273" ry="4.20455" fill="white" fill-opacity="0.31"/>
<ellipse cx="85.9319" cy="54.6591" rx="4.52273" ry="4.20455" fill="white" fill-opacity="0.31"/>
</svg>
